<svg width="62" height="63" viewBox="0 0 62 63" fill="none" xmlns="http://www.w3.org/2000/svg">
<g clip-path="url(#clip0_434_490)">
<path d="M53.638 0.831177H8.36179C3.92466 0.831177 0.315918 4.44088 0.315918 8.87899V54.1503C0.315918 58.5884 3.92466 62.1991 8.36179 62.1991H53.638C58.0742 62.1991 61.6839 58.5884 61.6839 54.1503V8.87899C61.6839 4.44088 58.0742 0.831177 53.638 0.831177ZM43.3518 8.98834C44.3506 8.98834 45.3086 9.385 46.0151 10.0911C46.7216 10.7972 47.1187 11.755 47.1192 12.7539C47.1192 14.8336 45.7886 16.5213 43.3518 16.5213C42.85 16.5327 42.3509 16.4437 41.884 16.2595C41.4171 16.0753 40.9917 15.7997 40.6328 15.4488C40.2738 15.098 39.9886 14.6789 39.7939 14.2163C39.5992 13.7536 39.4989 13.2568 39.4989 12.7548C39.4989 12.2529 39.5992 11.756 39.7939 11.2934C39.9886 10.8308 40.2738 10.4117 40.6328 10.0608C40.9917 9.70994 41.4171 9.43432 41.884 9.25015C42.3509 9.06598 42.85 8.97697 43.3518 8.98834ZM35.2023 20.821C35.5517 19.6026 37.0914 17.4436 39.7585 17.4436H46.9421C49.6102 17.4436 51.1518 19.6026 51.4983 20.821L54.1219 29.6459H50.8576L48.9367 22.9946H47.6728L49.525 29.6459H37.1756L39.0269 22.9946H37.764L35.8459 29.6459H32.5817L35.2023 20.821ZM18.2725 8.9535C18.7675 8.9535 19.2577 9.051 19.715 9.24043C20.1723 9.42986 20.5879 9.70751 20.9379 10.0575C21.2879 10.4076 21.5656 10.8231 21.755 11.2804C21.9444 11.7377 22.0419 12.2279 22.0419 12.7229C22.0419 13.2179 21.9444 13.708 21.755 14.1654C21.5656 14.6227 21.2879 15.0382 20.9379 15.3882C20.5879 15.7383 20.1723 16.0159 19.715 16.2053C19.2577 16.3948 18.7675 16.4923 18.2725 16.4923C17.2728 16.4923 16.3141 16.0951 15.6072 15.3882C14.9003 14.6814 14.5031 13.7226 14.5031 12.7229C14.5031 11.7232 14.9003 10.7644 15.6072 10.0575C16.3141 9.35063 17.2728 8.9535 18.2725 8.9535ZM18.3306 27.5111C18.2125 27.303 17.8525 26.4359 17.5612 25.7246L15.0693 36.246L15.0731 52.5458C15.078 54.1668 13.9699 55.4878 12.3499 55.4926C10.7289 55.4994 9.55696 54.191 9.54438 52.5681L9.5289 33.3273C9.5289 32.4214 9.88697 30.2721 10.095 29.4785L12.4321 19.6278C12.8405 17.9091 14.567 16.8291 16.2799 17.252C16.8452 17.3828 17.3706 17.6479 17.8117 18.0249C18.2527 18.402 18.5963 18.8797 18.8135 19.4178C19.1648 20.2936 20.7296 24.2536 21.0954 25.0733C21.2242 25.3559 21.4951 25.5059 21.5503 25.5311C21.86 25.6695 22.6303 25.9385 24.0287 26.5685L24.8174 26.9237L24.1332 25.6153L23.0329 23.5162C23.0329 23.5162 22.8868 23.1504 23.211 22.9936C23.5719 22.8185 23.7674 23.1136 23.7674 23.1136L27.0839 29.2966C27.0839 29.2966 27.3587 29.8995 27.202 30.3979C26.6523 30.3679 26.2816 29.7137 26.2816 29.7137L26.2216 29.5985L26.0474 29.9595C25.809 30.2629 25.4798 30.4821 25.1079 30.5852C24.736 30.6883 24.3409 30.6698 23.9803 30.5324C22.7184 29.9566 19.4561 28.6066 19.4561 28.6066C18.8899 28.3404 18.6132 28.0027 18.3316 27.512L18.3306 27.5111ZM30.1265 29.4505L31.0807 30.4743L23.7393 37.3076L22.7851 36.2847L30.1265 29.4505ZM54.267 34.3424H33.4797C32.7704 34.3424 32.3872 34.7421 32.1617 34.9521C31.2462 35.8028 25.1513 41.4283 25.1513 41.4283L23.3203 39.6225C23.3203 39.6225 30.1807 32.9663 31.0362 32.1698C31.5326 31.7121 32.1288 31.4653 32.7578 31.4653H54.268L54.267 34.3424Z" fill="#FAFAFA"/>
</g>
<defs>
<clipPath id="clip0_434_490">
<rect width="61.3679" height="61.3679" fill="white" transform="translate(0.315918 0.831177)"/>
</clipPath>
</defs>
</svg>