<svg width="62" height="63" viewBox="0 0 62 63" fill="none" xmlns="http://www.w3.org/2000/svg">
<path fill-rule="evenodd" clip-rule="evenodd" d="M41.2546 2.14292C38.1071 -0.666391 33.6026 -0.415462 30.631 2.30657C29.2946 3.52985 27.579 5.15271 25.4761 7.24333C23.7843 8.91653 22.1261 10.6234 20.5025 12.3628C17.7518 15.3222 17.4968 19.8266 20.3388 22.9646C21.1216 23.8265 22.0708 24.8274 23.2177 25.9648C24.016 26.7558 24.7469 27.4567 25.4106 28.0677H18.7201C17.5795 28.0825 16.4389 28.102 15.2984 28.1263C14.3752 28.1468 13.3101 28.5859 12.9487 29.6797C12.7551 30.2647 12.5982 31.0516 12.5982 32.0621C12.5982 33.0713 12.7551 33.8582 12.9487 34.4432C13.3101 35.5369 14.3738 35.9761 15.2971 35.9965C17.4177 36.0429 22.4349 36.1274 30.9938 36.1274C39.5526 36.1274 44.5685 36.0429 46.6878 35.9965C47.6124 35.9761 48.6761 35.5369 49.0375 34.4432C49.2311 33.8582 49.388 33.0713 49.388 32.0621C49.388 31.0529 49.2311 30.2647 49.0375 29.6797C48.6761 28.5859 47.6096 28.1468 46.6864 28.1263C45.9281 28.11 44.7962 28.0882 43.2648 28.0677H37.5057C39.0352 26.6445 40.5405 25.1955 42.021 23.7215C43.7128 22.0482 45.371 20.3414 46.9946 18.602C49.7439 15.6426 50.0003 11.1382 47.1569 8.00021C46.2242 6.97509 45.2647 5.97466 44.2794 4.99997C43.2963 4.02126 42.2877 3.06858 41.2546 2.14292ZM34.3159 6.32825C35.3632 5.36954 36.7038 5.39273 37.6216 6.21234C38.4153 6.92148 39.3549 7.79837 40.435 8.87164C41.5151 9.9449 42.4001 10.8763 43.1147 11.6632C43.9275 12.5606 43.9548 13.8589 42.9988 14.8885C41.8178 16.1595 40.2332 17.8096 38.178 19.8511C36.544 21.4794 34.8776 23.0748 33.1799 24.6365C32.1339 25.5952 30.7933 25.5721 29.8741 24.7524C28.9132 23.8908 27.9751 23.0041 27.0607 22.0931C26.1432 21.1858 25.2496 20.2545 24.381 19.3002C23.5682 18.4042 23.5423 17.1046 24.4983 16.0749C26.0718 14.3895 27.6786 12.7354 29.3177 11.1136C30.9517 9.48538 32.6181 7.88994 34.3159 6.32825ZM52.7401 19.4352C52.017 19.4102 51.3137 19.6735 50.7848 20.1671C50.2559 20.6607 49.9448 21.3442 49.9198 22.0672C49.8949 22.7902 50.1582 23.4936 50.6518 24.0225C51.1454 24.5513 51.8288 24.8625 52.5519 24.8875C54.5334 24.9556 55.7376 26.1298 55.9026 27.5249C56.3364 31.0127 56.3364 34.5407 55.9026 38.0285C55.7389 39.4236 54.5334 40.5978 52.5519 40.6673C48.3543 40.8119 41.3228 40.9769 30.9992 40.9769C20.6757 40.9769 13.6456 40.8133 9.44798 40.6673C7.4651 40.5978 6.26091 39.4236 6.0959 38.0285C5.66209 34.5407 5.66209 31.0127 6.0959 27.5249C6.25955 26.1298 7.4651 24.9556 9.44798 24.8875C9.80598 24.8749 10.158 24.792 10.484 24.6434C10.8099 24.4948 11.1034 24.2835 11.3477 24.0215C11.592 23.7595 11.7822 23.4519 11.9077 23.1164C12.0331 22.7808 12.0912 22.4239 12.0786 22.0659C12.0661 21.7079 11.9832 21.3558 11.8346 21.0299C11.686 20.7039 11.4747 20.4104 11.2127 20.1662C10.9507 19.9219 10.6431 19.7316 10.3076 19.6062C9.97202 19.4808 9.61506 19.4227 9.25706 19.4352C5.16583 19.577 1.2246 22.2759 0.679107 26.884C0.428853 28.9299 0.307694 30.9896 0.316351 33.0508V41.6642C0.316351 47.0674 0.56728 51.1654 0.859121 54.0975C1.33098 58.8474 5.20674 62.149 9.76437 62.3972C14.1079 62.6332 21.0521 62.8827 30.9992 62.8827C40.9464 62.8827 47.8919 62.6332 52.2327 62.3972C56.7931 62.149 60.6689 58.8474 61.1407 54.0975C61.4312 51.1654 61.6835 47.0674 61.6835 41.6642V33.0358C61.6915 30.9801 61.5703 28.9259 61.3207 26.8853C60.7752 22.2759 56.834 19.577 52.7401 19.4352Z" fill="#FAFAFA"/>
</svg>