<svg width="62" height="63" viewBox="0 0 62 63" fill="none" xmlns="http://www.w3.org/2000/svg">
<path d="M34.8355 41.7431C34.8355 42.7603 34.4314 43.7359 33.7122 44.4552C32.9929 45.1745 32.0173 45.5786 31 45.5786C29.9828 45.5786 29.0072 45.1745 28.2879 44.4552C27.5686 43.7359 27.1646 42.7603 27.1646 41.7431C27.1646 40.7259 27.5686 39.7503 28.2879 39.031C29.0072 38.3117 29.9828 37.9076 31 37.9076C32.0173 37.9076 32.9929 38.3117 33.7122 39.031C34.4314 39.7503 34.8355 40.7259 34.8355 41.7431Z" fill="#FAFAFA"/>
<path d="M37.0011 2.5188L45.1324 13.9128L50.4944 12.0845L55.3885 26.4012H57.8483V57.0851H4.15137V26.4012H5.45544V26.3756L7.11237 26.3909L37.0011 2.5188ZM24.344 26.4012H49.9855L47.3339 18.6458L43.4422 19.891L24.344 26.4012ZM20.3602 22.3534L40.0772 15.6362L35.9758 9.88295L20.3602 22.3534ZM14.3794 31.5152H9.26536V36.6291C10.6217 36.6291 11.9224 36.0904 12.8815 35.1313C13.8406 34.1722 14.3794 32.8715 14.3794 31.5152ZM39.9493 41.7431C39.9493 40.5679 39.7178 39.4041 39.2681 38.3183C38.8183 37.2325 38.1591 36.2459 37.3281 35.4149C36.4971 34.5839 35.5105 33.9246 34.4247 33.4749C33.3389 33.0251 32.1751 32.7936 30.9998 32.7936C29.8246 32.7936 28.6608 33.0251 27.575 33.4749C26.4892 33.9246 25.5026 34.5839 24.6716 35.4149C23.8406 36.2459 23.1813 37.2325 22.7316 38.3183C22.2818 39.4041 22.0504 40.5679 22.0504 41.7431C22.0504 44.1167 22.9932 46.393 24.6716 48.0714C26.35 49.7497 28.6263 50.6926 30.9998 50.6926C33.3734 50.6926 35.6497 49.7497 37.3281 48.0714C39.0064 46.393 39.9493 44.1167 39.9493 41.7431ZM52.7343 51.9711V46.8571C51.378 46.8571 50.0772 47.3959 49.1182 48.355C48.1591 49.3141 47.6203 50.6148 47.6203 51.9711H52.7343ZM47.6203 31.5152C47.6203 32.8715 48.1591 34.1722 49.1182 35.1313C50.0772 36.0904 51.378 36.6291 52.7343 36.6291V31.5152H47.6203ZM9.26536 51.9711H14.3794C14.3794 50.6148 13.8406 49.3141 12.8815 48.355C11.9224 47.3959 10.6217 46.8571 9.26536 46.8571V51.9711Z" fill="#FAFAFA"/>
</svg>